<mxfile host="www.draw.io" modified="2019-11-17T14:31:52.129Z" agent="Mozilla/5.0 (Windows NT 10.0; Win64; x64; rv:70.0) Gecko/20100101 Firefox/70.0" etag="JgpplkuXYzpToKZgNxNl" version="12.2.6" type="gitlab" pages="1">
  <diagram id="bNXygQLO8LMXLEQRobcn" name="Page-1">
    <mxGraphModel dx="1558" dy="1760" grid="1" gridSize="10" guides="1" tooltips="1" connect="1" arrows="1" fold="1" page="1" pageScale="1" pageWidth="827" pageHeight="1169" math="0" shadow="0">
      <root>
        <mxCell id="0"/>
        <mxCell id="1" parent="0"/>
        <mxCell id="ZeyeyYZVUVEV75W58zli-1" value="" style="rounded=0;whiteSpace=wrap;html=1;" vertex="1" parent="1">
          <mxGeometry x="60" y="120" width="320" height="250" as="geometry"/>
        </mxCell>
        <mxCell id="ZeyeyYZVUVEV75W58zli-2" value="&lt;div&gt;Public&lt;/div&gt;&lt;div&gt;/home&lt;/div&gt;&lt;div&gt;&lt;br&gt;&lt;/div&gt;" style="text;html=1;strokeColor=none;fillColor=none;align=center;verticalAlign=middle;whiteSpace=wrap;rounded=0;" vertex="1" parent="1">
          <mxGeometry x="110" y="80" width="150" height="50" as="geometry"/>
        </mxCell>
        <mxCell id="ZeyeyYZVUVEV75W58zli-4" value="" style="rounded=0;whiteSpace=wrap;html=1;" vertex="1" parent="1">
          <mxGeometry x="80" y="160" width="90" height="80" as="geometry"/>
        </mxCell>
        <mxCell id="ZeyeyYZVUVEV75W58zli-6" value="" style="rounded=0;whiteSpace=wrap;html=1;" vertex="1" parent="1">
          <mxGeometry x="210" y="160" width="90" height="80" as="geometry"/>
        </mxCell>
        <mxCell id="ZeyeyYZVUVEV75W58zli-51" style="edgeStyle=orthogonalEdgeStyle;rounded=0;orthogonalLoop=1;jettySize=auto;html=1;exitX=0.5;exitY=1;exitDx=0;exitDy=0;" edge="1" parent="1" source="ZeyeyYZVUVEV75W58zli-7">
          <mxGeometry relative="1" as="geometry">
            <mxPoint x="125.0689655172414" y="470" as="targetPoint"/>
          </mxGeometry>
        </mxCell>
        <mxCell id="ZeyeyYZVUVEV75W58zli-7" value="" style="rounded=0;whiteSpace=wrap;html=1;" vertex="1" parent="1">
          <mxGeometry x="80" y="270" width="90" height="80" as="geometry"/>
        </mxCell>
        <mxCell id="ZeyeyYZVUVEV75W58zli-8" value="" style="rounded=0;whiteSpace=wrap;html=1;" vertex="1" parent="1">
          <mxGeometry x="210" y="270" width="90" height="80" as="geometry"/>
        </mxCell>
        <mxCell id="ZeyeyYZVUVEV75W58zli-15" value="" style="shape=actor;whiteSpace=wrap;html=1;" vertex="1" parent="1">
          <mxGeometry x="90" y="180" width="40" height="60" as="geometry"/>
        </mxCell>
        <mxCell id="ZeyeyYZVUVEV75W58zli-16" value="" style="verticalLabelPosition=bottom;verticalAlign=top;html=1;shape=mxgraph.basic.smiley" vertex="1" parent="1">
          <mxGeometry x="220" y="170" width="60" height="60" as="geometry"/>
        </mxCell>
        <mxCell id="ZeyeyYZVUVEV75W58zli-17" value="" style="verticalLabelPosition=bottom;verticalAlign=top;html=1;shape=mxgraph.basic.drop" vertex="1" parent="1">
          <mxGeometry x="90" y="285" width="30" height="50" as="geometry"/>
        </mxCell>
        <mxCell id="ZeyeyYZVUVEV75W58zli-18" value="" style="verticalLabelPosition=bottom;verticalAlign=top;html=1;shape=mxgraph.basic.flash" vertex="1" parent="1">
          <mxGeometry x="230" y="280" width="40" height="60" as="geometry"/>
        </mxCell>
        <mxCell id="ZeyeyYZVUVEV75W58zli-22" value="" style="verticalLabelPosition=bottom;verticalAlign=top;html=1;shape=mxgraph.basic.rect;fillColor2=none;strokeWidth=1;size=20;indent=5;" vertex="1" parent="1">
          <mxGeometry x="-40" y="20" width="120" height="60" as="geometry"/>
        </mxCell>
        <mxCell id="ZeyeyYZVUVEV75W58zli-23" value="ShowPostDTO" style="text;html=1;strokeColor=none;fillColor=none;align=center;verticalAlign=middle;whiteSpace=wrap;rounded=0;" vertex="1" parent="1">
          <mxGeometry x="-60" y="25" width="150" height="50" as="geometry"/>
        </mxCell>
        <mxCell id="ZeyeyYZVUVEV75W58zli-32" style="edgeStyle=orthogonalEdgeStyle;rounded=0;orthogonalLoop=1;jettySize=auto;html=1;exitX=1;exitY=0.5;exitDx=0;exitDy=0;entryX=0;entryY=0.5;entryDx=0;entryDy=0;" edge="1" parent="1" source="ZeyeyYZVUVEV75W58zli-25" target="ZeyeyYZVUVEV75W58zli-28">
          <mxGeometry relative="1" as="geometry"/>
        </mxCell>
        <mxCell id="ZeyeyYZVUVEV75W58zli-33" style="edgeStyle=orthogonalEdgeStyle;rounded=0;orthogonalLoop=1;jettySize=auto;html=1;entryX=0;entryY=0.5;entryDx=0;entryDy=0;" edge="1" parent="1" source="ZeyeyYZVUVEV75W58zli-25" target="ZeyeyYZVUVEV75W58zli-30">
          <mxGeometry relative="1" as="geometry"/>
        </mxCell>
        <mxCell id="ZeyeyYZVUVEV75W58zli-25" value="" style="rounded=0;whiteSpace=wrap;html=1;" vertex="1" parent="1">
          <mxGeometry x="230" y="120" width="150" height="30" as="geometry"/>
        </mxCell>
        <mxCell id="ZeyeyYZVUVEV75W58zli-26" value="Login / Register" style="text;html=1;strokeColor=none;fillColor=none;align=center;verticalAlign=middle;whiteSpace=wrap;rounded=0;" vertex="1" parent="1">
          <mxGeometry x="250" y="125" width="100" height="20" as="geometry"/>
        </mxCell>
        <mxCell id="ZeyeyYZVUVEV75W58zli-83" value="" style="edgeStyle=orthogonalEdgeStyle;rounded=0;orthogonalLoop=1;jettySize=auto;html=1;" edge="1" parent="1" source="ZeyeyYZVUVEV75W58zli-28" target="ZeyeyYZVUVEV75W58zli-82">
          <mxGeometry relative="1" as="geometry"/>
        </mxCell>
        <mxCell id="ZeyeyYZVUVEV75W58zli-28" value="" style="rounded=0;whiteSpace=wrap;html=1;" vertex="1" parent="1">
          <mxGeometry x="520" y="35" width="210" height="145" as="geometry"/>
        </mxCell>
        <mxCell id="ZeyeyYZVUVEV75W58zli-82" value="" style="rounded=0;whiteSpace=wrap;html=1;" vertex="1" parent="1">
          <mxGeometry x="1330" y="62" width="950" height="628" as="geometry"/>
        </mxCell>
        <mxCell id="ZeyeyYZVUVEV75W58zli-30" value="" style="rounded=0;whiteSpace=wrap;html=1;" vertex="1" parent="1">
          <mxGeometry x="520" y="230" width="230" height="160" as="geometry"/>
        </mxCell>
        <mxCell id="ZeyeyYZVUVEV75W58zli-34" value="&lt;div&gt;Login&lt;/div&gt;&lt;div&gt;/session&lt;br&gt;&lt;/div&gt;" style="text;html=1;strokeColor=none;fillColor=none;align=center;verticalAlign=middle;whiteSpace=wrap;rounded=0;" vertex="1" parent="1">
          <mxGeometry x="480" y="-15" width="150" height="50" as="geometry"/>
        </mxCell>
        <mxCell id="ZeyeyYZVUVEV75W58zli-35" value="&lt;div&gt;Register&lt;/div&gt;&lt;div&gt;/users&lt;br&gt;&lt;/div&gt;" style="text;html=1;strokeColor=none;fillColor=none;align=center;verticalAlign=middle;whiteSpace=wrap;rounded=0;" vertex="1" parent="1">
          <mxGeometry x="450" y="170" width="190" height="85" as="geometry"/>
        </mxCell>
        <mxCell id="ZeyeyYZVUVEV75W58zli-37" value="email / username" style="text;html=1;strokeColor=none;fillColor=none;align=center;verticalAlign=middle;whiteSpace=wrap;rounded=0;" vertex="1" parent="1">
          <mxGeometry x="525" y="55" width="155" height="20" as="geometry"/>
        </mxCell>
        <mxCell id="ZeyeyYZVUVEV75W58zli-39" value="username" style="text;html=1;strokeColor=none;fillColor=none;align=center;verticalAlign=middle;whiteSpace=wrap;rounded=0;" vertex="1" parent="1">
          <mxGeometry x="545" y="245" width="40" height="20" as="geometry"/>
        </mxCell>
        <mxCell id="ZeyeyYZVUVEV75W58zli-40" value="email" style="text;html=1;strokeColor=none;fillColor=none;align=center;verticalAlign=middle;whiteSpace=wrap;rounded=0;direction=south;" vertex="1" parent="1">
          <mxGeometry x="555" y="267.5" width="20" height="40" as="geometry"/>
        </mxCell>
        <mxCell id="ZeyeyYZVUVEV75W58zli-41" value="password" style="text;html=1;strokeColor=none;fillColor=none;align=center;verticalAlign=middle;whiteSpace=wrap;rounded=0;" vertex="1" parent="1">
          <mxGeometry x="545" y="310" width="40" height="20" as="geometry"/>
        </mxCell>
        <mxCell id="ZeyeyYZVUVEV75W58zli-42" value="password" style="text;html=1;strokeColor=none;fillColor=none;align=center;verticalAlign=middle;whiteSpace=wrap;rounded=0;" vertex="1" parent="1">
          <mxGeometry x="545" y="340" width="40" height="20" as="geometry"/>
        </mxCell>
        <mxCell id="ZeyeyYZVUVEV75W58zli-44" value="AuthUserDTO" style="rounded=0;whiteSpace=wrap;html=1;" vertex="1" parent="1">
          <mxGeometry x="790" y="33" width="120" height="60" as="geometry"/>
        </mxCell>
        <mxCell id="ZeyeyYZVUVEV75W58zli-45" value="CreateUserDTO" style="rounded=0;whiteSpace=wrap;html=1;" vertex="1" parent="1">
          <mxGeometry x="800" y="227.5" width="120" height="60" as="geometry"/>
        </mxCell>
        <mxCell id="ZeyeyYZVUVEV75W58zli-46" value="" style="endArrow=none;dashed=1;html=1;exitX=0.375;exitY=0.961;exitDx=0;exitDy=0;exitPerimeter=0;entryX=0;entryY=0.25;entryDx=0;entryDy=0;" edge="1" parent="1" source="ZeyeyYZVUVEV75W58zli-22" target="ZeyeyYZVUVEV75W58zli-4">
          <mxGeometry width="50" height="50" relative="1" as="geometry">
            <mxPoint x="-40" y="460" as="sourcePoint"/>
            <mxPoint x="10" y="410" as="targetPoint"/>
          </mxGeometry>
        </mxCell>
        <mxCell id="ZeyeyYZVUVEV75W58zli-47" value="" style="endArrow=none;dashed=1;html=1;exitX=1.003;exitY=0.413;exitDx=0;exitDy=0;exitPerimeter=0;entryX=0;entryY=0.5;entryDx=0;entryDy=0;" edge="1" parent="1" source="ZeyeyYZVUVEV75W58zli-28" target="ZeyeyYZVUVEV75W58zli-44">
          <mxGeometry width="50" height="50" relative="1" as="geometry">
            <mxPoint x="762.5" y="83.65999999999985" as="sourcePoint"/>
            <mxPoint x="837.5" y="186" as="targetPoint"/>
          </mxGeometry>
        </mxCell>
        <mxCell id="ZeyeyYZVUVEV75W58zli-49" value="" style="endArrow=none;dashed=1;html=1;exitX=1.003;exitY=0.413;exitDx=0;exitDy=0;exitPerimeter=0;" edge="1" parent="1">
          <mxGeometry width="50" height="50" relative="1" as="geometry">
            <mxPoint x="750.1299999999997" y="283.385" as="sourcePoint"/>
            <mxPoint x="800" y="260" as="targetPoint"/>
          </mxGeometry>
        </mxCell>
        <mxCell id="ZeyeyYZVUVEV75W58zli-50" value="email / username" style="text;html=1;strokeColor=none;fillColor=none;align=center;verticalAlign=middle;whiteSpace=wrap;rounded=0;" vertex="1" parent="1">
          <mxGeometry x="520" y="95" width="155" height="20" as="geometry"/>
        </mxCell>
        <mxCell id="ZeyeyYZVUVEV75W58zli-52" value="" style="rounded=0;whiteSpace=wrap;html=1;" vertex="1" parent="1">
          <mxGeometry x="70" y="470" width="580" height="420" as="geometry"/>
        </mxCell>
        <mxCell id="ZeyeyYZVUVEV75W58zli-55" value="" style="rounded=0;whiteSpace=wrap;html=1;" vertex="1" parent="1">
          <mxGeometry x="500" y="470" width="150" height="30" as="geometry"/>
        </mxCell>
        <mxCell id="ZeyeyYZVUVEV75W58zli-53" value="Login / Register" style="text;html=1;strokeColor=none;fillColor=none;align=center;verticalAlign=middle;whiteSpace=wrap;rounded=0;" vertex="1" parent="1">
          <mxGeometry x="515" y="480" width="100" height="15" as="geometry"/>
        </mxCell>
        <mxCell id="ZeyeyYZVUVEV75W58zli-56" value="" style="rounded=0;whiteSpace=wrap;html=1;" vertex="1" parent="1">
          <mxGeometry x="90" y="507" width="360" height="313" as="geometry"/>
        </mxCell>
        <mxCell id="ZeyeyYZVUVEV75W58zli-57" value="" style="rounded=0;whiteSpace=wrap;html=1;" vertex="1" parent="1">
          <mxGeometry x="450" y="510" width="150" height="310" as="geometry"/>
        </mxCell>
        <mxCell id="ZeyeyYZVUVEV75W58zli-60" value="" style="rounded=0;whiteSpace=wrap;html=1;" vertex="1" parent="1">
          <mxGeometry x="730" y="680" width="190" height="315" as="geometry"/>
        </mxCell>
        <mxCell id="ZeyeyYZVUVEV75W58zli-61" value="ShowPostDTO" style="text;html=1;strokeColor=none;fillColor=none;align=center;verticalAlign=middle;whiteSpace=wrap;rounded=0;" vertex="1" parent="1">
          <mxGeometry x="710" y="680" width="150" height="50" as="geometry"/>
        </mxCell>
        <mxCell id="ZeyeyYZVUVEV75W58zli-62" value="" style="rounded=0;whiteSpace=wrap;html=1;" vertex="1" parent="1">
          <mxGeometry x="450" y="510" width="150" height="40" as="geometry"/>
        </mxCell>
        <mxCell id="ZeyeyYZVUVEV75W58zli-63" value="Comments" style="text;html=1;strokeColor=none;fillColor=none;align=center;verticalAlign=middle;whiteSpace=wrap;rounded=0;" vertex="1" parent="1">
          <mxGeometry x="450" y="520" width="130" height="20" as="geometry"/>
        </mxCell>
        <mxCell id="ZeyeyYZVUVEV75W58zli-66" value="" style="rounded=0;whiteSpace=wrap;html=1;" vertex="1" parent="1">
          <mxGeometry x="100" y="516" width="320" height="254" as="geometry"/>
        </mxCell>
        <mxCell id="ZeyeyYZVUVEV75W58zli-67" value="" style="verticalLabelPosition=bottom;verticalAlign=top;html=1;shape=mxgraph.basic.drop" vertex="1" parent="1">
          <mxGeometry x="115" y="543" width="115" height="187" as="geometry"/>
        </mxCell>
        <mxCell id="ZeyeyYZVUVEV75W58zli-68" value="" style="rounded=0;whiteSpace=wrap;html=1;" vertex="1" parent="1">
          <mxGeometry x="450" y="555" width="150" height="45" as="geometry"/>
        </mxCell>
        <mxCell id="ZeyeyYZVUVEV75W58zli-71" value="" style="endArrow=none;html=1;" edge="1" parent="1">
          <mxGeometry width="50" height="50" relative="1" as="geometry">
            <mxPoint x="564" y="467" as="sourcePoint"/>
            <mxPoint x="450" y="310" as="targetPoint"/>
            <Array as="points">
              <mxPoint x="564" y="440"/>
              <mxPoint x="450" y="440"/>
            </Array>
          </mxGeometry>
        </mxCell>
        <mxCell id="ZeyeyYZVUVEV75W58zli-73" value="" style="rounded=0;whiteSpace=wrap;html=1;" vertex="1" parent="1">
          <mxGeometry x="450" y="620" width="150" height="45" as="geometry"/>
        </mxCell>
        <mxCell id="ZeyeyYZVUVEV75W58zli-74" value="" style="rounded=0;whiteSpace=wrap;html=1;" vertex="1" parent="1">
          <mxGeometry x="450" y="677.5" width="150" height="45" as="geometry"/>
        </mxCell>
        <mxCell id="ZeyeyYZVUVEV75W58zli-75" value="" style="rounded=0;whiteSpace=wrap;html=1;" vertex="1" parent="1">
          <mxGeometry x="450" y="735" width="150" height="45" as="geometry"/>
        </mxCell>
        <mxCell id="ZeyeyYZVUVEV75W58zli-76" value="comment 1" style="text;html=1;strokeColor=none;fillColor=none;align=center;verticalAlign=middle;whiteSpace=wrap;rounded=0;" vertex="1" parent="1">
          <mxGeometry x="402.5" y="548" width="165" height="36" as="geometry"/>
        </mxCell>
        <mxCell id="ZeyeyYZVUVEV75W58zli-77" value="comment 2" style="text;html=1;strokeColor=none;fillColor=none;align=center;verticalAlign=middle;whiteSpace=wrap;rounded=0;" vertex="1" parent="1">
          <mxGeometry x="420" y="626.5" width="130" height="20" as="geometry"/>
        </mxCell>
        <mxCell id="ZeyeyYZVUVEV75W58zli-78" value="comment 3" style="text;html=1;strokeColor=none;fillColor=none;align=center;verticalAlign=middle;whiteSpace=wrap;rounded=0;" vertex="1" parent="1">
          <mxGeometry x="420" y="690" width="130" height="20" as="geometry"/>
        </mxCell>
        <mxCell id="ZeyeyYZVUVEV75W58zli-79" value="comment 4" style="text;html=1;strokeColor=none;fillColor=none;align=center;verticalAlign=middle;whiteSpace=wrap;rounded=0;" vertex="1" parent="1">
          <mxGeometry x="420" y="737.5" width="130" height="20" as="geometry"/>
        </mxCell>
        <mxCell id="ZeyeyYZVUVEV75W58zli-80" value="" style="endArrow=none;dashed=1;html=1;entryX=0.75;entryY=1;entryDx=0;entryDy=0;" edge="1" parent="1" target="ZeyeyYZVUVEV75W58zli-56">
          <mxGeometry width="50" height="50" relative="1" as="geometry">
            <mxPoint x="720" y="880" as="sourcePoint"/>
            <mxPoint x="-10" y="1020" as="targetPoint"/>
            <Array as="points">
              <mxPoint x="520" y="780"/>
            </Array>
          </mxGeometry>
        </mxCell>
        <mxCell id="ZeyeyYZVUVEV75W58zli-81" value="CommentDTO" style="rounded=0;whiteSpace=wrap;html=1;" vertex="1" parent="1">
          <mxGeometry x="740" y="870" width="120" height="60" as="geometry"/>
        </mxCell>
        <mxCell id="ZeyeyYZVUVEV75W58zli-84" value="&lt;div&gt;Public&lt;/div&gt;&lt;div&gt;/posts/:id&lt;/div&gt;&lt;div&gt;&lt;br&gt;&lt;/div&gt;" style="text;html=1;strokeColor=none;fillColor=none;align=center;verticalAlign=middle;whiteSpace=wrap;rounded=0;" vertex="1" parent="1">
          <mxGeometry x="105" y="420" width="150" height="50" as="geometry"/>
        </mxCell>
        <mxCell id="ZeyeyYZVUVEV75W58zli-85" value="&lt;div&gt;&lt;font style=&quot;font-size: 14px&quot;&gt;Private &lt;br&gt;&lt;/font&gt;&lt;/div&gt;&lt;div&gt;&lt;font style=&quot;font-size: 14px&quot;&gt;/ home&lt;/font&gt;&lt;/div&gt;" style="text;html=1;strokeColor=none;fillColor=none;align=center;verticalAlign=middle;whiteSpace=wrap;rounded=0;" vertex="1" parent="1">
          <mxGeometry x="1300" y="-42" width="230" height="104" as="geometry"/>
        </mxCell>
        <mxCell id="ZeyeyYZVUVEV75W58zli-86" value="public" style="text;html=1;strokeColor=none;fillColor=none;align=center;verticalAlign=middle;whiteSpace=wrap;rounded=0;" vertex="1" parent="1">
          <mxGeometry x="-90" y="-17" width="150" height="50" as="geometry"/>
        </mxCell>
        <mxCell id="ZeyeyYZVUVEV75W58zli-87" value="" style="rounded=0;whiteSpace=wrap;html=1;" vertex="1" parent="1">
          <mxGeometry x="1347.5" y="187.5" width="225" height="195" as="geometry"/>
        </mxCell>
        <mxCell id="ZeyeyYZVUVEV75W58zli-91" value="" style="rounded=0;whiteSpace=wrap;html=1;" vertex="1" parent="1">
          <mxGeometry x="1619" y="187.5" width="225" height="195" as="geometry"/>
        </mxCell>
        <mxCell id="ZeyeyYZVUVEV75W58zli-92" value="" style="rounded=0;whiteSpace=wrap;html=1;" vertex="1" parent="1">
          <mxGeometry x="1347.5" y="445" width="225" height="195" as="geometry"/>
        </mxCell>
        <mxCell id="ZeyeyYZVUVEV75W58zli-93" value="" style="rounded=0;whiteSpace=wrap;html=1;" vertex="1" parent="1">
          <mxGeometry x="1636.5" y="452.5" width="219" height="190" as="geometry"/>
        </mxCell>
        <mxCell id="ZeyeyYZVUVEV75W58zli-94" value="" style="rounded=0;whiteSpace=wrap;html=1;" vertex="1" parent="1">
          <mxGeometry x="1895.5" y="182.5" width="225" height="195" as="geometry"/>
        </mxCell>
        <mxCell id="ZeyeyYZVUVEV75W58zli-95" value="" style="shape=actor;whiteSpace=wrap;html=1;" vertex="1" parent="1">
          <mxGeometry x="1362.5" y="252.5" width="105" height="130" as="geometry"/>
        </mxCell>
        <mxCell id="ZeyeyYZVUVEV75W58zli-96" value="" style="verticalLabelPosition=bottom;verticalAlign=top;html=1;shape=mxgraph.basic.smiley" vertex="1" parent="1">
          <mxGeometry x="1931" y="222" width="118" height="113" as="geometry"/>
        </mxCell>
        <mxCell id="ZeyeyYZVUVEV75W58zli-97" value="" style="verticalLabelPosition=bottom;verticalAlign=top;html=1;shape=mxgraph.basic.drop" vertex="1" parent="1">
          <mxGeometry x="1370" y="470" width="60" height="95" as="geometry"/>
        </mxCell>
        <mxCell id="ZeyeyYZVUVEV75W58zli-101" value="" style="rounded=0;whiteSpace=wrap;html=1;" vertex="1" parent="1">
          <mxGeometry x="1905.5" y="440" width="215" height="194" as="geometry"/>
        </mxCell>
        <mxCell id="ZeyeyYZVUVEV75W58zli-100" value="" style="verticalLabelPosition=bottom;verticalAlign=top;html=1;shape=mxgraph.basic.pyramid;dx1=0.4;dx2=0.6;dy1=0.9;dy2=0.8;" vertex="1" parent="1">
          <mxGeometry x="1746" y="530" width="100" height="100" as="geometry"/>
        </mxCell>
        <mxCell id="ZeyeyYZVUVEV75W58zli-102" value="" style="verticalLabelPosition=bottom;verticalAlign=top;html=1;shape=mxgraph.basic.pyramid;dx1=0.4;dx2=0.6;dy1=0.9;dy2=0.8;" vertex="1" parent="1">
          <mxGeometry x="2008" y="520" width="82" height="75" as="geometry"/>
        </mxCell>
        <mxCell id="ZeyeyYZVUVEV75W58zli-105" value="" style="rounded=0;whiteSpace=wrap;html=1;" vertex="1" parent="1">
          <mxGeometry x="1330" y="65" width="950" height="88" as="geometry"/>
        </mxCell>
        <mxCell id="ZeyeyYZVUVEV75W58zli-106" value="Search" style="html=1;strokeColor=none;fillColor=#0079D6;labelPosition=center;verticalLabelPosition=middle;verticalAlign=top;align=center;fontSize=12;outlineConnect=0;spacingTop=-6;fontColor=#FFFFFF;shape=mxgraph.sitemap.search;" vertex="1" parent="1">
          <mxGeometry x="1362.5" y="80" width="80" height="50" as="geometry"/>
        </mxCell>
        <mxCell id="ZeyeyYZVUVEV75W58zli-107" value="" style="rounded=0;whiteSpace=wrap;html=1;" vertex="1" parent="1">
          <mxGeometry x="1467.5" y="80" width="350" height="50" as="geometry"/>
        </mxCell>
        <mxCell id="ZeyeyYZVUVEV75W58zli-108" value="" style="rounded=0;whiteSpace=wrap;html=1;" vertex="1" parent="1">
          <mxGeometry x="1347.5" y="382.5" width="225" height="40" as="geometry"/>
        </mxCell>
        <mxCell id="ZeyeyYZVUVEV75W58zli-109" value="" style="rounded=0;whiteSpace=wrap;html=1;" vertex="1" parent="1">
          <mxGeometry x="1347.5" y="640" width="225" height="40" as="geometry"/>
        </mxCell>
        <mxCell id="ZeyeyYZVUVEV75W58zli-110" value="" style="rounded=0;whiteSpace=wrap;html=1;" vertex="1" parent="1">
          <mxGeometry x="1637" y="644" width="224" height="40" as="geometry"/>
        </mxCell>
        <mxCell id="ZeyeyYZVUVEV75W58zli-111" value="" style="rounded=0;whiteSpace=wrap;html=1;" vertex="1" parent="1">
          <mxGeometry x="1619" y="382.5" width="224" height="40" as="geometry"/>
        </mxCell>
        <mxCell id="ZeyeyYZVUVEV75W58zli-112" value="" style="rounded=0;whiteSpace=wrap;html=1;" vertex="1" parent="1">
          <mxGeometry x="1895.5" y="377.5" width="224" height="40" as="geometry"/>
        </mxCell>
        <mxCell id="ZeyeyYZVUVEV75W58zli-113" value="" style="rounded=0;whiteSpace=wrap;html=1;" vertex="1" parent="1">
          <mxGeometry x="1905.5" y="636.5" width="224" height="40" as="geometry"/>
        </mxCell>
        <mxCell id="ZeyeyYZVUVEV75W58zli-118" style="edgeStyle=orthogonalEdgeStyle;rounded=0;orthogonalLoop=1;jettySize=auto;html=1;" edge="1" parent="1" source="ZeyeyYZVUVEV75W58zli-114">
          <mxGeometry relative="1" as="geometry">
            <mxPoint x="2450" y="109.99999999999977" as="targetPoint"/>
          </mxGeometry>
        </mxCell>
        <mxCell id="ZeyeyYZVUVEV75W58zli-114" value="Profile" style="html=1;strokeColor=none;fillColor=#0079D6;labelPosition=center;verticalLabelPosition=middle;verticalAlign=top;align=center;fontSize=12;outlineConnect=0;spacingTop=-6;fontColor=#FFFFFF;shape=mxgraph.sitemap.profile;" vertex="1" parent="1">
          <mxGeometry x="1957.5" y="75" width="120" height="70" as="geometry"/>
        </mxCell>
        <mxCell id="ZeyeyYZVUVEV75W58zli-117" style="edgeStyle=orthogonalEdgeStyle;rounded=0;orthogonalLoop=1;jettySize=auto;html=1;exitX=0.5;exitY=0;exitDx=0;exitDy=0;" edge="1" parent="1" source="ZeyeyYZVUVEV75W58zli-115">
          <mxGeometry relative="1" as="geometry">
            <mxPoint x="325" y="120" as="targetPoint"/>
            <Array as="points">
              <mxPoint x="2205" y="-81"/>
              <mxPoint x="325" y="-81"/>
            </Array>
          </mxGeometry>
        </mxCell>
        <mxCell id="ZeyeyYZVUVEV75W58zli-115" value="Logout" style="rounded=0;whiteSpace=wrap;html=1;" vertex="1" parent="1">
          <mxGeometry x="2130" y="65" width="150" height="45" as="geometry"/>
        </mxCell>
        <mxCell id="ZeyeyYZVUVEV75W58zli-119" value="" style="rounded=0;whiteSpace=wrap;html=1;" vertex="1" parent="1">
          <mxGeometry x="2450" y="62" width="950" height="628" as="geometry"/>
        </mxCell>
        <mxCell id="ZeyeyYZVUVEV75W58zli-120" value="&lt;div&gt;&lt;font style=&quot;font-size: 14px&quot;&gt;Private &lt;br&gt;&lt;/font&gt;&lt;/div&gt;&lt;div&gt;&lt;font style=&quot;font-size: 14px&quot;&gt;/profile/:id&lt;br&gt;&lt;/font&gt;&lt;/div&gt;" style="text;html=1;strokeColor=none;fillColor=none;align=center;verticalAlign=middle;whiteSpace=wrap;rounded=0;" vertex="1" parent="1">
          <mxGeometry x="2450" y="-54" width="230" height="104" as="geometry"/>
        </mxCell>
        <mxCell id="ZeyeyYZVUVEV75W58zli-122" value="" style="rounded=0;whiteSpace=wrap;html=1;direction=north;" vertex="1" parent="1">
          <mxGeometry x="2587" y="160" width="173" height="150" as="geometry"/>
        </mxCell>
        <mxCell id="ZeyeyYZVUVEV75W58zli-142" style="edgeStyle=orthogonalEdgeStyle;rounded=0;orthogonalLoop=1;jettySize=auto;html=1;entryX=0.5;entryY=0;entryDx=0;entryDy=0;exitX=0.5;exitY=0;exitDx=0;exitDy=0;" edge="1" parent="1" source="ZeyeyYZVUVEV75W58zli-122" target="ZeyeyYZVUVEV75W58zli-125">
          <mxGeometry relative="1" as="geometry"/>
        </mxCell>
        <mxCell id="ZeyeyYZVUVEV75W58zli-121" value="" style="shape=actor;whiteSpace=wrap;html=1;" vertex="1" parent="1">
          <mxGeometry x="2624" y="184" width="97" height="106" as="geometry"/>
        </mxCell>
        <mxCell id="ZeyeyYZVUVEV75W58zli-125" value="" style="rounded=0;whiteSpace=wrap;html=1;" vertex="1" parent="1">
          <mxGeometry x="2472.5" y="913" width="170" height="82" as="geometry"/>
        </mxCell>
        <mxCell id="ZeyeyYZVUVEV75W58zli-126" value="Upload photo" style="text;html=1;strokeColor=none;fillColor=none;align=center;verticalAlign=middle;whiteSpace=wrap;rounded=0;" vertex="1" parent="1">
          <mxGeometry x="2485" y="930" width="145" height="42" as="geometry"/>
        </mxCell>
        <mxCell id="ZeyeyYZVUVEV75W58zli-128" value="" style="rounded=0;whiteSpace=wrap;html=1;" vertex="1" parent="1">
          <mxGeometry x="2450" y="61" width="950" height="88" as="geometry"/>
        </mxCell>
        <mxCell id="ZeyeyYZVUVEV75W58zli-129" value="Search" style="html=1;strokeColor=none;fillColor=#0079D6;labelPosition=center;verticalLabelPosition=middle;verticalAlign=top;align=center;fontSize=12;outlineConnect=0;spacingTop=-6;fontColor=#FFFFFF;shape=mxgraph.sitemap.search;" vertex="1" parent="1">
          <mxGeometry x="2471.5" y="80" width="80" height="50" as="geometry"/>
        </mxCell>
        <mxCell id="ZeyeyYZVUVEV75W58zli-130" value="" style="rounded=0;whiteSpace=wrap;html=1;" vertex="1" parent="1">
          <mxGeometry x="2576.5" y="80" width="350" height="50" as="geometry"/>
        </mxCell>
        <mxCell id="ZeyeyYZVUVEV75W58zli-131" value="Profile" style="html=1;strokeColor=none;fillColor=#0079D6;labelPosition=center;verticalLabelPosition=middle;verticalAlign=top;align=center;fontSize=12;outlineConnect=0;spacingTop=-6;fontColor=#FFFFFF;shape=mxgraph.sitemap.profile;" vertex="1" parent="1">
          <mxGeometry x="3080" y="71" width="120" height="70" as="geometry"/>
        </mxCell>
        <mxCell id="ZeyeyYZVUVEV75W58zli-132" value="Logout" style="rounded=0;whiteSpace=wrap;html=1;" vertex="1" parent="1">
          <mxGeometry x="3250" y="63" width="150" height="45" as="geometry"/>
        </mxCell>
        <mxCell id="ZeyeyYZVUVEV75W58zli-139" value="" style="rounded=0;whiteSpace=wrap;html=1;" vertex="1" parent="1">
          <mxGeometry x="2793" y="157" width="598" height="83" as="geometry"/>
        </mxCell>
        <mxCell id="ZeyeyYZVUVEV75W58zli-143" value="Profile change" style="html=1;strokeColor=none;fillColor=#0079D6;labelPosition=center;verticalLabelPosition=middle;verticalAlign=top;align=center;fontSize=12;outlineConnect=0;spacingTop=-6;fontColor=#FFFFFF;shape=mxgraph.sitemap.services;" vertex="1" parent="1">
          <mxGeometry x="3130" y="163.5" width="120" height="70" as="geometry"/>
        </mxCell>
        <mxCell id="ZeyeyYZVUVEV75W58zli-144" value="People I follow" style="html=1;strokeColor=none;fillColor=#0079D6;labelPosition=center;verticalLabelPosition=middle;verticalAlign=top;align=center;fontSize=12;outlineConnect=0;spacingTop=-6;fontColor=#FFFFFF;shape=mxgraph.sitemap.about_us;" vertex="1" parent="1">
          <mxGeometry x="3265" y="163.5" width="120" height="70" as="geometry"/>
        </mxCell>
        <mxCell id="ZeyeyYZVUVEV75W58zli-145" value="MyPics" style="html=1;strokeColor=none;fillColor=#0079D6;labelPosition=center;verticalLabelPosition=middle;verticalAlign=top;align=center;fontSize=12;outlineConnect=0;spacingTop=-6;fontColor=#FFFFFF;shape=mxgraph.sitemap.gallery;" vertex="1" parent="1">
          <mxGeometry x="2996.5" y="163.5" width="120" height="70" as="geometry"/>
        </mxCell>
        <mxCell id="ZeyeyYZVUVEV75W58zli-146" value="" style="rounded=0;whiteSpace=wrap;html=1;" vertex="1" parent="1">
          <mxGeometry x="2567.5" y="330" width="225" height="195" as="geometry"/>
        </mxCell>
        <mxCell id="ZeyeyYZVUVEV75W58zli-147" value="" style="rounded=0;whiteSpace=wrap;html=1;" vertex="1" parent="1">
          <mxGeometry x="2567.5" y="530" width="225" height="40" as="geometry"/>
        </mxCell>
        <mxCell id="ZeyeyYZVUVEV75W58zli-153" value="" style="rounded=0;whiteSpace=wrap;html=1;" vertex="1" parent="1">
          <mxGeometry x="2825" y="330" width="225" height="195" as="geometry"/>
        </mxCell>
        <mxCell id="ZeyeyYZVUVEV75W58zli-154" value="" style="rounded=0;whiteSpace=wrap;html=1;" vertex="1" parent="1">
          <mxGeometry x="2825" y="530" width="225" height="40" as="geometry"/>
        </mxCell>
        <mxCell id="ZeyeyYZVUVEV75W58zli-155" value="" style="rounded=0;whiteSpace=wrap;html=1;" vertex="1" parent="1">
          <mxGeometry x="3095" y="330" width="225" height="195" as="geometry"/>
        </mxCell>
        <mxCell id="ZeyeyYZVUVEV75W58zli-156" value="" style="rounded=0;whiteSpace=wrap;html=1;" vertex="1" parent="1">
          <mxGeometry x="3095" y="530" width="225" height="40" as="geometry"/>
        </mxCell>
        <mxCell id="ZeyeyYZVUVEV75W58zli-157" value="" style="rounded=0;whiteSpace=wrap;html=1;" vertex="1" parent="1">
          <mxGeometry x="2567.5" y="600" width="225" height="90" as="geometry"/>
        </mxCell>
        <mxCell id="ZeyeyYZVUVEV75W58zli-159" value="" style="rounded=0;whiteSpace=wrap;html=1;" vertex="1" parent="1">
          <mxGeometry x="2825" y="601.5" width="225" height="90" as="geometry"/>
        </mxCell>
        <mxCell id="ZeyeyYZVUVEV75W58zli-160" value="" style="rounded=0;whiteSpace=wrap;html=1;" vertex="1" parent="1">
          <mxGeometry x="3095" y="598" width="225" height="90" as="geometry"/>
        </mxCell>
        <mxCell id="ZeyeyYZVUVEV75W58zli-136" value="&lt;font style=&quot;font-size: 18px&quot;&gt;Name&lt;/font&gt;" style="text;html=1;strokeColor=none;fillColor=none;align=center;verticalAlign=middle;whiteSpace=wrap;rounded=0;" vertex="1" parent="1">
          <mxGeometry x="2698" y="141" width="254" height="62" as="geometry"/>
        </mxCell>
        <mxCell id="ZeyeyYZVUVEV75W58zli-162" value="" style="verticalLabelPosition=bottom;verticalAlign=top;html=1;shape=mxgraph.basic.smiley" vertex="1" parent="1">
          <mxGeometry x="2603" y="353.5" width="118" height="113" as="geometry"/>
        </mxCell>
        <mxCell id="ZeyeyYZVUVEV75W58zli-99" value="" style="verticalLabelPosition=bottom;verticalAlign=top;html=1;shape=mxgraph.basic.sun" vertex="1" parent="1">
          <mxGeometry x="2853.5" y="358.5" width="143" height="138" as="geometry"/>
        </mxCell>
        <mxCell id="ZeyeyYZVUVEV75W58zli-163" value="" style="verticalLabelPosition=bottom;verticalAlign=top;html=1;shape=mxgraph.basic.sun" vertex="1" parent="1">
          <mxGeometry x="1653.5" y="212" width="143" height="138" as="geometry"/>
        </mxCell>
        <mxCell id="ZeyeyYZVUVEV75W58zli-98" value="" style="verticalLabelPosition=bottom;verticalAlign=top;html=1;shape=mxgraph.basic.flash" vertex="1" parent="1">
          <mxGeometry x="3155" y="365" width="83" height="125" as="geometry"/>
        </mxCell>
        <mxCell id="ZeyeyYZVUVEV75W58zli-164" value="" style="rounded=0;whiteSpace=wrap;html=1;" vertex="1" parent="1">
          <mxGeometry x="3450" y="52.5" width="190" height="315" as="geometry"/>
        </mxCell>
        <mxCell id="ZeyeyYZVUVEV75W58zli-166" value="" style="endArrow=none;dashed=1;html=1;exitX=1.003;exitY=0.413;exitDx=0;exitDy=0;exitPerimeter=0;" edge="1" parent="1">
          <mxGeometry width="50" height="50" relative="1" as="geometry">
            <mxPoint x="3400.1299999999997" y="329.385" as="sourcePoint"/>
            <mxPoint x="3450" y="306" as="targetPoint"/>
          </mxGeometry>
        </mxCell>
        <mxCell id="ZeyeyYZVUVEV75W58zli-167" value="MyProfileDTO(?)" style="rounded=0;whiteSpace=wrap;html=1;" vertex="1" parent="1">
          <mxGeometry x="3450" y="53" width="190" height="45" as="geometry"/>
        </mxCell>
        <mxCell id="ZeyeyYZVUVEV75W58zli-176" style="edgeStyle=orthogonalEdgeStyle;rounded=0;orthogonalLoop=1;jettySize=auto;html=1;" edge="1" parent="1" source="ZeyeyYZVUVEV75W58zli-169">
          <mxGeometry relative="1" as="geometry">
            <mxPoint x="2810" y="1150" as="targetPoint"/>
          </mxGeometry>
        </mxCell>
        <mxCell id="ZeyeyYZVUVEV75W58zli-169" value="New Post" style="html=1;strokeColor=none;fillColor=#0079D6;labelPosition=center;verticalLabelPosition=middle;verticalAlign=top;align=center;fontSize=12;outlineConnect=0;spacingTop=-6;fontColor=#FFFFFF;shape=mxgraph.sitemap.photo;" vertex="1" parent="1">
          <mxGeometry x="2865" y="163.5" width="120" height="70" as="geometry"/>
        </mxCell>
        <mxCell id="ZeyeyYZVUVEV75W58zli-172" value="" style="verticalLabelPosition=bottom;verticalAlign=top;html=1;shape=mxgraph.basic.smiley" vertex="1" parent="1">
          <mxGeometry x="1648" y="461" width="118" height="113" as="geometry"/>
        </mxCell>
        <mxCell id="ZeyeyYZVUVEV75W58zli-173" value="" style="verticalLabelPosition=bottom;verticalAlign=top;html=1;shape=mxgraph.basic.pyramid;dx1=0.4;dx2=0.6;dy1=0.9;dy2=0.8;" vertex="1" parent="1">
          <mxGeometry x="1908" y="515" width="100" height="100" as="geometry"/>
        </mxCell>
        <mxCell id="ZeyeyYZVUVEV75W58zli-174" value="" style="rounded=0;whiteSpace=wrap;html=1;" vertex="1" parent="1">
          <mxGeometry x="2471.5" y="1155" width="950" height="628" as="geometry"/>
        </mxCell>
        <mxCell id="ZeyeyYZVUVEV75W58zli-177" value="&lt;div&gt;&lt;font style=&quot;font-size: 14px&quot;&gt;Private &lt;br&gt;&lt;/font&gt;&lt;/div&gt;&lt;div&gt;&lt;font style=&quot;font-size: 14px&quot;&gt;/posts&lt;br&gt;&lt;/font&gt;&lt;/div&gt;" style="text;html=1;strokeColor=none;fillColor=none;align=center;verticalAlign=middle;whiteSpace=wrap;rounded=0;" vertex="1" parent="1">
          <mxGeometry x="2400" y="1080" width="230" height="104" as="geometry"/>
        </mxCell>
        <mxCell id="ZeyeyYZVUVEV75W58zli-179" value="Panel content" style="html=1;shadow=0;dashed=0;shape=mxgraph.bootstrap.rrect;align=center;rSize=5;strokeColor=#3D8BCD;fontColor=#f0f0f0;spacingTop=30;whiteSpace=wrap;" vertex="1" parent="1">
          <mxGeometry x="2719.5" y="1243" width="454" height="510" as="geometry"/>
        </mxCell>
        <mxCell id="ZeyeyYZVUVEV75W58zli-180" value="Create post panel" style="html=1;shadow=0;dashed=0;shape=mxgraph.bootstrap.topButton;rSize=5;strokeColor=none;fillColor=#3D8BCD;fontColor=#ffffff;fontSize=14;fontStyle=1;align=left;spacingLeft=10;whiteSpace=wrap;resizeWidth=1;" vertex="1" parent="ZeyeyYZVUVEV75W58zli-179">
          <mxGeometry width="454.00000000000006" height="30" relative="1" as="geometry">
            <mxPoint y="-30" as="offset"/>
          </mxGeometry>
        </mxCell>
        <mxCell id="ZeyeyYZVUVEV75W58zli-225" value="" style="rounded=0;whiteSpace=wrap;html=1;" vertex="1" parent="ZeyeyYZVUVEV75W58zli-179">
          <mxGeometry x="21" y="17" width="380" height="82" as="geometry"/>
        </mxCell>
        <mxCell id="ZeyeyYZVUVEV75W58zli-226" value="" style="rounded=0;whiteSpace=wrap;html=1;" vertex="1" parent="ZeyeyYZVUVEV75W58zli-179">
          <mxGeometry x="25.5" y="121" width="380" height="82" as="geometry"/>
        </mxCell>
        <mxCell id="ZeyeyYZVUVEV75W58zli-227" value="" style="rounded=0;whiteSpace=wrap;html=1;" vertex="1" parent="ZeyeyYZVUVEV75W58zli-179">
          <mxGeometry x="21" y="214" width="209" height="82" as="geometry"/>
        </mxCell>
        <mxCell id="ZeyeyYZVUVEV75W58zli-228" value="" style="rounded=0;whiteSpace=wrap;html=1;" vertex="1" parent="ZeyeyYZVUVEV75W58zli-179">
          <mxGeometry x="21" y="307" width="169" height="73" as="geometry"/>
        </mxCell>
        <mxCell id="ZeyeyYZVUVEV75W58zli-229" value="&lt;div&gt;&lt;font style=&quot;font-size: 24px&quot;&gt;&lt;b&gt;&lt;font style=&quot;font-size: 18px&quot;&gt;&lt;font style=&quot;font-size: 24px&quot;&gt;Title &lt;/font&gt;&lt;br&gt;&lt;/font&gt;&lt;/b&gt;&lt;/font&gt;&lt;/div&gt;&lt;div&gt;&lt;font size=&quot;3&quot;&gt;&lt;b&gt;&lt;font style=&quot;font-size: 14px&quot;&gt;&lt;br&gt;&lt;/font&gt;&lt;/b&gt;&lt;/font&gt;&lt;/div&gt;" style="text;html=1;strokeColor=none;fillColor=none;align=center;verticalAlign=middle;whiteSpace=wrap;rounded=0;" vertex="1" parent="ZeyeyYZVUVEV75W58zli-179">
          <mxGeometry x="-50" y="17" width="230" height="104" as="geometry"/>
        </mxCell>
        <mxCell id="ZeyeyYZVUVEV75W58zli-230" value="&lt;div&gt;&lt;font style=&quot;font-size: 24px&quot;&gt;&lt;b&gt;&lt;font style=&quot;font-size: 18px&quot;&gt;&lt;font style=&quot;font-size: 24px&quot;&gt;Desrtiption&lt;/font&gt;&lt;br&gt;&lt;/font&gt;&lt;/b&gt;&lt;/font&gt;&lt;/div&gt;&lt;div&gt;&lt;font size=&quot;3&quot;&gt;&lt;b&gt;&lt;font style=&quot;font-size: 14px&quot;&gt;&lt;br&gt;&lt;/font&gt;&lt;/b&gt;&lt;/font&gt;&lt;/div&gt;" style="text;html=1;strokeColor=none;fillColor=none;align=center;verticalAlign=middle;whiteSpace=wrap;rounded=0;" vertex="1" parent="ZeyeyYZVUVEV75W58zli-179">
          <mxGeometry x="-14.5" y="110" width="230" height="104" as="geometry"/>
        </mxCell>
        <mxCell id="ZeyeyYZVUVEV75W58zli-231" value="&lt;div&gt;&lt;font style=&quot;font-size: 24px&quot;&gt;&lt;b&gt;Upload Photo&lt;/b&gt;&lt;/font&gt;&lt;font style=&quot;font-size: 24px&quot;&gt;&lt;b&gt;&lt;font style=&quot;font-size: 18px&quot;&gt;&lt;br&gt;&lt;/font&gt;&lt;/b&gt;&lt;/font&gt;&lt;/div&gt;&lt;div&gt;&lt;font size=&quot;3&quot;&gt;&lt;b&gt;&lt;font style=&quot;font-size: 14px&quot;&gt;&lt;br&gt;&lt;/font&gt;&lt;/b&gt;&lt;/font&gt;&lt;/div&gt;" style="text;html=1;strokeColor=none;fillColor=none;align=center;verticalAlign=middle;whiteSpace=wrap;rounded=0;" vertex="1" parent="ZeyeyYZVUVEV75W58zli-179">
          <mxGeometry x="-3" y="199.5" width="230" height="104" as="geometry"/>
        </mxCell>
        <mxCell id="ZeyeyYZVUVEV75W58zli-232" value="&lt;font style=&quot;font-size: 24px&quot;&gt;Private/Public&lt;/font&gt;" style="text;html=1;strokeColor=none;fillColor=none;align=center;verticalAlign=middle;whiteSpace=wrap;rounded=0;fontStyle=1" vertex="1" parent="ZeyeyYZVUVEV75W58zli-179">
          <mxGeometry x="-9.5" y="291.5" width="230" height="104" as="geometry"/>
        </mxCell>
        <mxCell id="ZeyeyYZVUVEV75W58zli-234" value="" style="rounded=0;whiteSpace=wrap;html=1;" vertex="1" parent="ZeyeyYZVUVEV75W58zli-179">
          <mxGeometry x="21" y="397" width="219" height="82" as="geometry"/>
        </mxCell>
        <mxCell id="ZeyeyYZVUVEV75W58zli-235" value="&lt;font style=&quot;font-size: 24px&quot;&gt;Location&lt;/font&gt;" style="text;html=1;strokeColor=none;fillColor=none;align=center;verticalAlign=middle;whiteSpace=wrap;rounded=0;fontStyle=1" vertex="1" parent="ZeyeyYZVUVEV75W58zli-179">
          <mxGeometry y="386" width="230" height="104" as="geometry"/>
        </mxCell>
        <mxCell id="ZeyeyYZVUVEV75W58zli-236" style="edgeStyle=orthogonalEdgeStyle;rounded=0;orthogonalLoop=1;jettySize=auto;html=1;entryX=0.5;entryY=1;entryDx=0;entryDy=0;" edge="1" parent="1" source="ZeyeyYZVUVEV75W58zli-231" target="ZeyeyYZVUVEV75W58zli-125">
          <mxGeometry relative="1" as="geometry"/>
        </mxCell>
        <mxCell id="ZeyeyYZVUVEV75W58zli-237" value="" style="rounded=0;whiteSpace=wrap;html=1;" vertex="1" parent="1">
          <mxGeometry x="3590" y="1503" width="382" height="280" as="geometry"/>
        </mxCell>
        <mxCell id="ZeyeyYZVUVEV75W58zli-239" style="edgeStyle=orthogonalEdgeStyle;rounded=0;orthogonalLoop=1;jettySize=auto;html=1;exitX=1;exitY=0.5;exitDx=0;exitDy=0;entryX=0;entryY=0.636;entryDx=0;entryDy=0;entryPerimeter=0;" edge="1" parent="1" source="ZeyeyYZVUVEV75W58zli-234" target="ZeyeyYZVUVEV75W58zli-237">
          <mxGeometry relative="1" as="geometry"/>
        </mxCell>
        <mxCell id="ZeyeyYZVUVEV75W58zli-240" value="" style="ellipse;shape=cloud;whiteSpace=wrap;html=1;" vertex="1" parent="1">
          <mxGeometry x="3620" y="1530" width="120" height="80" as="geometry"/>
        </mxCell>
        <mxCell id="ZeyeyYZVUVEV75W58zli-241" value="&lt;font style=&quot;font-size: 24px&quot;&gt;Google Maps API&lt;/font&gt;" style="text;html=1;strokeColor=none;fillColor=none;align=center;verticalAlign=middle;whiteSpace=wrap;rounded=0;" vertex="1" parent="1">
          <mxGeometry x="3680" y="1670" width="150" height="50" as="geometry"/>
        </mxCell>
        <mxCell id="ZeyeyYZVUVEV75W58zli-242" value="" style="rounded=0;whiteSpace=wrap;html=1;" vertex="1" parent="1">
          <mxGeometry x="3525" y="974.5" width="190" height="315" as="geometry"/>
        </mxCell>
        <mxCell id="ZeyeyYZVUVEV75W58zli-243" value="" style="endArrow=none;dashed=1;html=1;exitX=1.003;exitY=0.413;exitDx=0;exitDy=0;exitPerimeter=0;entryX=-0.002;entryY=0.527;entryDx=0;entryDy=0;entryPerimeter=0;" edge="1" parent="1" target="ZeyeyYZVUVEV75W58zli-242">
          <mxGeometry width="50" height="50" relative="1" as="geometry">
            <mxPoint x="3420.129999999999" y="1190.3850000000002" as="sourcePoint"/>
            <mxPoint x="3470" y="1167" as="targetPoint"/>
          </mxGeometry>
        </mxCell>
        <mxCell id="ZeyeyYZVUVEV75W58zli-244" value="CreatePostDTO" style="rounded=0;whiteSpace=wrap;html=1;" vertex="1" parent="1">
          <mxGeometry x="3525" y="974.5" width="190" height="45" as="geometry"/>
        </mxCell>
        <mxCell id="ZeyeyYZVUVEV75W58zli-245" value="" style="rounded=0;whiteSpace=wrap;html=1;" vertex="1" parent="1">
          <mxGeometry x="1162" y="1330" width="1018" height="680" as="geometry"/>
        </mxCell>
        <mxCell id="ZeyeyYZVUVEV75W58zli-246" value="" style="rounded=0;whiteSpace=wrap;html=1;" vertex="1" parent="1">
          <mxGeometry x="1168" y="1330" width="1002" height="140" as="geometry"/>
        </mxCell>
        <mxCell id="ZeyeyYZVUVEV75W58zli-250" value="Search" style="html=1;strokeColor=none;fillColor=#0079D6;labelPosition=center;verticalLabelPosition=middle;verticalAlign=top;align=center;fontSize=12;outlineConnect=0;spacingTop=-6;fontColor=#FFFFFF;shape=mxgraph.sitemap.search;" vertex="1" parent="1">
          <mxGeometry x="1238" y="1370" width="80" height="50" as="geometry"/>
        </mxCell>
        <mxCell id="ZeyeyYZVUVEV75W58zli-251" value="" style="rounded=0;whiteSpace=wrap;html=1;" vertex="1" parent="1">
          <mxGeometry x="1343" y="1370" width="350" height="50" as="geometry"/>
        </mxCell>
        <mxCell id="ZeyeyYZVUVEV75W58zli-252" value="Profile" style="html=1;strokeColor=none;fillColor=#0079D6;labelPosition=center;verticalLabelPosition=middle;verticalAlign=top;align=center;fontSize=12;outlineConnect=0;spacingTop=-6;fontColor=#FFFFFF;shape=mxgraph.sitemap.profile;" vertex="1" parent="1">
          <mxGeometry x="1893" y="1350" width="120" height="70" as="geometry"/>
        </mxCell>
        <mxCell id="ZeyeyYZVUVEV75W58zli-255" value="Logout" style="rounded=0;whiteSpace=wrap;html=1;" vertex="1" parent="1">
          <mxGeometry x="2020" y="1370" width="150" height="45" as="geometry"/>
        </mxCell>
        <mxCell id="ZeyeyYZVUVEV75W58zli-260" value="" style="rounded=0;whiteSpace=wrap;html=1;" vertex="1" parent="1">
          <mxGeometry x="1170" y="1470" width="890" height="530" as="geometry"/>
        </mxCell>
        <mxCell id="ZeyeyYZVUVEV75W58zli-258" value="" style="rounded=0;whiteSpace=wrap;html=1;" vertex="1" parent="1">
          <mxGeometry x="1180" y="1488" width="560" height="409" as="geometry"/>
        </mxCell>
        <mxCell id="ZeyeyYZVUVEV75W58zli-259" value="" style="verticalLabelPosition=bottom;verticalAlign=top;html=1;shape=mxgraph.basic.drop" vertex="1" parent="1">
          <mxGeometry x="1218" y="1574.5" width="200" height="284" as="geometry"/>
        </mxCell>
        <mxCell id="ZeyeyYZVUVEV75W58zli-261" value="" style="rounded=0;whiteSpace=wrap;html=1;" vertex="1" parent="1">
          <mxGeometry x="1779" y="1488" width="253" height="457" as="geometry"/>
        </mxCell>
        <mxCell id="ZeyeyYZVUVEV75W58zli-262" value="" style="verticalLabelPosition=bottom;verticalAlign=top;html=1;shape=mxgraph.basic.heart" vertex="1" parent="1">
          <mxGeometry x="1183" y="1911.5" width="70" height="67" as="geometry"/>
        </mxCell>
        <mxCell id="ZeyeyYZVUVEV75W58zli-264" value="" style="verticalLabelPosition=bottom;verticalAlign=top;html=1;shape=mxgraph.basic.diag_round_rect;dx=6;" vertex="1" parent="1">
          <mxGeometry x="1278" y="1918.5" width="320" height="60" as="geometry"/>
        </mxCell>
        <mxCell id="ZeyeyYZVUVEV75W58zli-267" value="Text" style="text;html=1;strokeColor=none;fillColor=none;align=center;verticalAlign=middle;whiteSpace=wrap;rounded=0;" vertex="1" parent="1">
          <mxGeometry x="1290" y="1938.5" width="40" height="20" as="geometry"/>
        </mxCell>
      </root>
    </mxGraphModel>
  </diagram>
</mxfile>
